<svg viewBox="0 0 141.723 61.5569" fill="none" xmlns="http://www.w3.org/2000/svg">
<g id="AA_Logo_MV_1 1" clip-path="url(#clip0_0_4)">
<path id="Vector_2" d="M66.8151 17.3865C68.863 17.3865 70.3546 18.3998 70.9144 19.5923H70.9817C70.9605 19.3399 70.9357 19.0399 70.9357 18.4181V17.7523H73.1395V29.6189H70.9357V28.7666C70.9357 28.2362 70.9569 27.8923 70.9817 27.5704H70.9144C70.3121 28.9714 68.7319 29.9847 66.7265 29.9847C63.2508 29.9847 60.9372 27.3399 60.9372 23.6856C60.9372 20.0312 63.3854 17.3865 66.8186 17.3865H66.8151ZM70.8471 23.6636C70.8471 21.2713 69.2882 19.5703 67.1056 19.5703C64.9231 19.5703 63.3642 21.2713 63.3642 23.6636C63.3642 26.056 64.9692 27.757 67.1056 27.757C69.2421 27.757 70.8471 26.034 70.8471 23.6636Z" fill="#252828"/>
<path id="Vector_3" d="M81.7633 17.7523V19.9581H78.8473V29.6152H76.4416V17.7486H81.7633V17.7523Z" fill="#252828"/>
<path id="Vector_4" d="M88.8671 29.9883C85.3028 29.9883 82.7412 27.296 82.7412 23.6893C82.7412 20.0825 85.3028 17.3902 88.8211 17.3902C92.3393 17.3902 94.4793 20.0569 94.4793 23.6893C94.4793 23.9636 94.4581 24.355 94.412 24.5855H85.2567C85.5685 26.5388 86.9255 27.757 88.8884 27.757C90.3127 27.757 91.3366 27.2265 92.1622 26.1474L93.5652 27.6436C92.4279 29.2055 90.8264 29.9883 88.8671 29.9883ZM85.2603 22.7894H92.0984C91.9212 20.9055 90.628 19.5703 88.7785 19.5703C86.9291 19.5703 85.5721 20.836 85.2603 22.7894Z" fill="#252828"/>
<path id="Vector_5" d="M101.92 17.3865C103.613 17.3865 105.24 18.1218 105.884 19.3399H105.973C105.927 19.0875 105.906 18.8095 105.906 18.1657V12.3714H108.29V29.6189H106.086V28.8617C106.086 28.3313 106.108 27.9655 106.132 27.6655H106.065C105.307 29.1616 103.705 29.9883 101.835 29.9883C98.405 29.9883 96.0879 27.3655 96.0879 23.6893C96.0879 20.013 98.4724 17.3902 101.923 17.3902L101.92 17.3865ZM105.994 23.6636C105.994 21.2713 104.435 19.5703 102.253 19.5703C100.07 19.5703 98.5113 21.2713 98.5113 23.6636C98.5113 26.056 100.116 27.757 102.253 27.757C104.389 27.757 105.994 26.034 105.994 23.6636Z" fill="#252828"/>
<path id="Vector_6" d="M116.662 17.3865C118.71 17.3865 120.202 18.3998 120.762 19.5923H120.829C120.808 19.3399 120.783 19.0399 120.783 18.4181V17.7523H122.987V29.6189H120.783V28.7666C120.783 28.2362 120.804 27.8923 120.829 27.5704H120.762C120.159 28.9714 118.579 29.9847 116.574 29.9847C113.098 29.9847 110.785 27.3399 110.785 23.6856C110.785 20.0312 113.233 17.3865 116.666 17.3865H116.662ZM120.694 23.6636C120.694 21.2713 119.136 19.5703 116.953 19.5703C114.77 19.5703 113.212 21.2713 113.212 23.6636C113.212 26.056 114.817 27.757 116.953 27.757C119.089 27.757 120.694 26.034 120.694 23.6636Z" fill="#252828"/>
<path id="Vector_7" d="M66.8151 36.5837C68.863 36.5837 70.3546 37.597 70.9144 38.7895H70.9817C70.9605 38.5371 70.9357 38.2371 70.9357 37.6153V36.9495H73.1395V48.8161H70.9357V47.9638C70.9357 47.4334 70.9569 47.0895 70.9817 46.7676H70.9144C70.3121 48.1686 68.7319 49.1819 66.7265 49.1819C63.2508 49.1819 60.9372 46.5372 60.9372 42.8828C60.9372 39.2285 63.3854 36.5837 66.8186 36.5837H66.8151ZM70.8471 42.8609C70.8471 40.4685 69.2882 38.7676 67.1056 38.7676C64.9231 38.7676 63.3642 40.4685 63.3642 42.8609C63.3642 45.2532 64.9692 46.9542 67.1056 46.9542C69.2421 46.9542 70.8471 45.2313 70.8471 42.8609Z" fill="#252828"/>
<path id="Vector_8" d="M76.8845 39.1114H75.6586V36.9495H76.8845V33.8695H79.2902V36.9495H82.4081V39.1114H79.2902V46.6323H82.0751V48.8161H76.8845V39.1114Z" fill="#252828"/>
<path id="Vector_9" d="M89.6927 49.1856C86.1283 49.1856 83.5667 46.4933 83.5667 42.8865C83.5667 39.2797 86.1283 36.5874 89.6466 36.5874C93.1649 36.5874 95.3049 39.2541 95.3049 42.8865C95.3049 43.1608 95.2836 43.5522 95.2376 43.7827H86.0823C86.3941 45.7361 87.7511 46.9542 89.7139 46.9542C91.1382 46.9542 92.1622 46.4238 92.9877 45.3446L94.3908 46.8408C93.2534 48.4027 91.652 49.1856 89.6927 49.1856ZM86.0823 41.9866H92.9204C92.7432 40.1027 91.45 38.7676 89.6005 38.7676C87.7511 38.7676 86.3941 40.0332 86.0823 41.9866Z" fill="#252828"/>
<path id="Vector_10" d="M97.6894 31.5686H100.095V46.6286H102.969V48.8124H97.6894V31.5649V31.5686Z" fill="#252828"/>
<path id="Vector_11" d="M104.637 33.5476C104.637 32.6953 105.282 32.0515 106.108 32.0515C106.933 32.0515 107.578 32.6953 107.578 33.5476C107.578 34.3999 106.908 35.0437 106.108 35.0437C105.307 35.0437 104.637 34.3999 104.637 33.5476ZM104.903 48.8161V36.9495H107.309V48.8161H104.903Z" fill="#252828"/>
<path id="Vector_12" d="M115.908 49.1856C112.343 49.1856 109.782 46.4933 109.782 42.8865C109.782 39.2797 112.343 36.5874 115.862 36.5874C119.38 36.5874 121.52 39.2541 121.52 42.8865C121.52 43.1608 121.499 43.5522 121.453 43.7827H112.297C112.609 45.7361 113.966 46.9542 115.929 46.9542C117.353 46.9542 118.377 46.4238 119.203 45.3446L120.606 46.8408C119.469 48.4027 117.867 49.1856 115.908 49.1856ZM112.297 41.9866H119.136C118.958 40.1027 117.665 38.7676 115.816 38.7676C113.966 38.7676 112.609 40.0332 112.297 41.9866Z" fill="#252828"/>
<path id="Vector_13" d="M129.226 36.9495V39.1553H126.31V48.8124H123.904V36.9459H129.226V36.9495Z" fill="#252828"/>
<path id="Vector_14" d="M43.1014 17.3097H32.7131C27.9725 17.3097 24.1141 21.2933 24.1141 26.1877V26.762H27.9441V26.1877C27.9441 23.4698 30.0842 21.2603 32.7166 21.2603H43.1049C45.7374 21.2603 47.8774 23.4698 47.8774 26.1877V29.8457H21.0954C16.3548 29.8457 12.4964 33.8292 12.4964 38.7237V39.9454C12.4964 44.8398 16.3548 48.8234 21.0954 48.8234H51.5906V44.8691H21.0954C18.4664 44.8691 16.3229 42.6597 16.3229 39.9418V38.72C16.3229 36.0021 18.4629 33.7927 21.0954 33.7927H47.8703V39.9418H51.7004V26.184C51.7004 21.2896 47.842 17.306 43.1014 17.306V17.3097Z" fill="#252828"/>
</g>
<defs>
<clipPath id="clip0_0_4">
<rect width="141.723" height="61.5569" fill="white"/>
</clipPath>
</defs>
</svg>
